<mxfile host="app.diagrams.net" modified="2022-01-07T00:48:30.258Z" agent="5.0 (Windows)" etag="5VnKJJBKH-ZfV4NjQe0C" version="16.2.2" type="github">
  <diagram id="nBr0R9BzFTvDNvVGjYW4" name="Page-1">
    <mxGraphModel dx="1038" dy="509" grid="1" gridSize="10" guides="1" tooltips="1" connect="1" arrows="1" fold="1" page="1" pageScale="1" pageWidth="850" pageHeight="1100" math="0" shadow="0">
      <root>
        <mxCell id="0" />
        <mxCell id="1" parent="0" />
        <mxCell id="41VK4EA_8Cg1WOQoJtaG-1" value="start" style="rounded=1;whiteSpace=wrap;html=1;" vertex="1" parent="1">
          <mxGeometry x="370" y="40" width="120" height="60" as="geometry" />
        </mxCell>
        <mxCell id="41VK4EA_8Cg1WOQoJtaG-2" value="end" style="rounded=1;whiteSpace=wrap;html=1;" vertex="1" parent="1">
          <mxGeometry x="365" y="450" width="120" height="60" as="geometry" />
        </mxCell>
        <mxCell id="41VK4EA_8Cg1WOQoJtaG-3" value="" style="endArrow=none;html=1;rounded=0;exitX=0.6;exitY=0.017;exitDx=0;exitDy=0;exitPerimeter=0;startArrow=none;" edge="1" parent="1" source="41VK4EA_8Cg1WOQoJtaG-5">
          <mxGeometry width="50" height="50" relative="1" as="geometry">
            <mxPoint x="400" y="290" as="sourcePoint" />
            <mxPoint x="437" y="100" as="targetPoint" />
          </mxGeometry>
        </mxCell>
        <mxCell id="41VK4EA_8Cg1WOQoJtaG-4" value="hello world" style="shape=parallelogram;perimeter=parallelogramPerimeter;whiteSpace=wrap;html=1;fixedSize=1;" vertex="1" parent="1">
          <mxGeometry x="370" y="160" width="120" height="60" as="geometry" />
        </mxCell>
        <mxCell id="41VK4EA_8Cg1WOQoJtaG-5" value="Hello World" style="shape=parallelogram;perimeter=parallelogramPerimeter;whiteSpace=wrap;html=1;fixedSize=1;" vertex="1" parent="1">
          <mxGeometry x="370" y="250" width="120" height="60" as="geometry" />
        </mxCell>
        <mxCell id="41VK4EA_8Cg1WOQoJtaG-6" value="" style="endArrow=none;html=1;rounded=0;exitX=0.6;exitY=0.017;exitDx=0;exitDy=0;exitPerimeter=0;" edge="1" parent="1" source="41VK4EA_8Cg1WOQoJtaG-2" target="41VK4EA_8Cg1WOQoJtaG-5">
          <mxGeometry width="50" height="50" relative="1" as="geometry">
            <mxPoint x="437" y="451.02" as="sourcePoint" />
            <mxPoint x="437" y="100" as="targetPoint" />
          </mxGeometry>
        </mxCell>
        <mxCell id="41VK4EA_8Cg1WOQoJtaG-7" value="multi lines" style="shape=parallelogram;perimeter=parallelogramPerimeter;whiteSpace=wrap;html=1;fixedSize=1;" vertex="1" parent="1">
          <mxGeometry x="365" y="340" width="120" height="60" as="geometry" />
        </mxCell>
      </root>
    </mxGraphModel>
  </diagram>
</mxfile>
